<svg xmlns="http://www.w3.org/2000/svg" xmlns:xlink="http://www.w3.org/1999/xlink" viewBox="0 0 463.87 274.6">
  <defs>
    <style>
      .cls-1, .cls-6 {
        fill: #fff;
      }

      .cls-2 {
        fill: #d7e0d9;
      }

      .cls-3 {
        fill: #dfeae2;
      }

      .cls-4 {
        fill: #8dc3a7;
      }

      .cls-5 {
        fill: #207567;
      }

      .cls-6 {
        stroke: #dfeae2;
        stroke-miterlimit: 10;
        stroke-width: 2px;
      }

      .cls-7 {
        fill: url(#linear-gradient);
      }

      .cls-8 {
        fill: url(#linear-gradient-2);
      }

      .cls-9 {
        fill: url(#linear-gradient-3);
      }
    </style>
    <linearGradient id="linear-gradient" x1="429.01" y1="42.98" x2="470.36" y2="258.27" gradientUnits="userSpaceOnUse">
      <stop offset="0" stop-color="#88b9e5"/>
      <stop offset="1" stop-color="#6282d1"/>
    </linearGradient>
    <linearGradient id="linear-gradient-2" x1="420.09" y1="42" x2="461.44" y2="257.29" xlink:href="#linear-gradient"/>
    <linearGradient id="linear-gradient-3" x1="411.18" y1="40.48" x2="452.52" y2="255.77" xlink:href="#linear-gradient"/>
  </defs>
  <g id="Layer_2" data-name="Layer 2">
    <g id="Layer_2-2" data-name="Layer 2">
      <g>
        <g>
          <g>
            <g>
              <rect class="cls-1" x="0.5" y="0.5" width="392.11" height="273.6" rx="14.94"/>
              <path class="cls-2" d="M377.68,1a14.43,14.43,0,0,1,14.43,14.44V259.16a14.43,14.43,0,0,1-14.43,14.44H15.44A14.43,14.43,0,0,1,1,259.16V15.44A14.43,14.43,0,0,1,15.44,1H377.68m0-1H15.44A15.45,15.45,0,0,0,0,15.44V259.16A15.46,15.46,0,0,0,15.44,274.6H377.68a15.45,15.45,0,0,0,15.43-15.44V15.44A15.45,15.45,0,0,0,377.68,0Z"/>
            </g>
            <rect class="cls-3" x="143.85" y="61.76" width="222.73" height="120.42" rx="7.28"/>
            <rect class="cls-3" x="20.13" y="20.54" width="298.46" height="15.68" rx="7.84"/>
            <circle class="cls-4" cx="341.99" cy="28.38" r="6.18"/>
            <circle class="cls-5" cx="363.26" cy="28.38" r="6.18"/>
            <rect class="cls-4" x="146.66" y="202.14" width="217.43" height="6.42" rx="3.21"/>
            <rect class="cls-4" x="146.66" y="225.67" width="169.11" height="6.42" rx="3.21"/>
            <path class="cls-6" d="M169.31,161.51H338a3.11,3.11,0,0,0,2.51-4.94l-16.67-22.81a12.56,12.56,0,0,0-16.67-3.32l-13.6,8.28a14.42,14.42,0,0,1-17.33-1.78L231,94.72a12.56,12.56,0,0,0-18.58,1.61l-45.57,60.19A3.11,3.11,0,0,0,169.31,161.51Z"/>
            <circle class="cls-6" cx="325.24" cy="96.28" r="10.34"/>
          </g>
          <g>
            <path class="cls-7" d="M421.1,65.41h34.69a8.08,8.08,0,0,1,8.08,8.08v38a0,0,0,0,1,0,0H413a0,0,0,0,1,0,0v-38A8.08,8.08,0,0,1,421.1,65.41Z"/>
            <rect class="cls-8" x="413.02" y="114.52" width="50.85" height="46.1"/>
            <path class="cls-9" d="M413,163.09h50.85a0,0,0,0,1,0,0v38a8.08,8.08,0,0,1-8.08,8.08H421.1a8.08,8.08,0,0,1-8.08-8.08v-38A0,0,0,0,1,413,163.09Z"/>
            <path class="cls-1" d="M446.77,132.91a10.19,10.19,0,0,0-1.26-3c-.55-.74-.83-1-2.67-1h-2.45v15.23c0,2.63.29,2.87,3.21,3.09v1.08H433.43v-1.08c2.81-.22,3.09-.45,3.09-3.09V129h-2.29c-1.78,0-2.29.26-2.88,1.09a13.28,13.28,0,0,0-1.22,2.88H429c.22-2.2.43-4.53.5-6.15h.89c.48.75.85.78,1.79.78h12.75a1.92,1.92,0,0,0,1.78-.78h.87c0,1.4.15,4,.31,6Z"/>
            <g>
              <rect class="cls-1" x="427.22" y="79.69" width="22.46" height="2.44" rx="0.75"/>
              <rect class="cls-1" x="427.22" y="87.24" width="22.46" height="2.44" rx="0.75"/>
              <rect class="cls-1" x="427.22" y="94.79" width="22.46" height="2.44" rx="0.75"/>
            </g>
            <path class="cls-1" d="M449.75,184.54H447a.21.21,0,0,1-.21-.17,8.69,8.69,0,0,0-1.15-2.77.2.2,0,0,1,0-.27l2-2a.23.23,0,0,0,0-.31l-2-2a.21.21,0,0,0-.31,0l-2,2a.23.23,0,0,1-.27,0,8.33,8.33,0,0,0-2.76-1.15.21.21,0,0,1-.17-.21v-2.77a.22.22,0,0,0-.22-.22H437a.22.22,0,0,0-.22.22v2.77a.21.21,0,0,1-.17.21,8.47,8.47,0,0,0-2.77,1.15.21.21,0,0,1-.26,0l-2-2a.21.21,0,0,0-.31,0l-2,2a.23.23,0,0,0,0,.31l2,2a.23.23,0,0,1,0,.27,8.47,8.47,0,0,0-1.15,2.77.21.21,0,0,1-.21.17h-2.77a.22.22,0,0,0-.22.22v2.88a.22.22,0,0,0,.22.22h2.77a.22.22,0,0,1,.21.16,8.38,8.38,0,0,0,1.15,2.77.23.23,0,0,1,0,.27l-2,2a.23.23,0,0,0,0,.31l2,2a.21.21,0,0,0,.31,0l2-2a.2.2,0,0,1,.26,0,8.69,8.69,0,0,0,2.77,1.15.2.2,0,0,1,.17.2v2.77a.22.22,0,0,0,.22.22h2.88a.22.22,0,0,0,.22-.22v-2.77a.2.2,0,0,1,.17-.2,8.54,8.54,0,0,0,2.76-1.15.21.21,0,0,1,.27,0l2,2a.21.21,0,0,0,.31,0l2-2a.23.23,0,0,0,0-.31l-2-2a.2.2,0,0,1,0-.27,8.6,8.6,0,0,0,1.15-2.77.2.2,0,0,1,.2-.16h2.77a.22.22,0,0,0,.22-.22v-2.88A.22.22,0,0,0,449.75,184.54Zm-9.13,6.06A4.93,4.93,0,0,1,434,184a4.41,4.41,0,0,1,2.24-2.24,4.93,4.93,0,0,1,6.57,6.58A4.33,4.33,0,0,1,440.62,190.6Z"/>
          </g>
        </g>
        <rect class="cls-3" x="24.05" y="59.73" width="98.38" height="192.71" rx="7.49"/>
      </g>
    </g>
  </g>
</svg>
