<?xml version="1.0" encoding="UTF-8"?>
<!-- Created with Inkscape (http://www.inkscape.org/) -->
<svg width="685" height="680.9" version="1.1" viewBox="0 0 685 680.9" xml:space="preserve" xmlns="http://www.w3.org/2000/svg"><g transform="matrix(1.3333 0 0 -1.3333 162.32 561.84)"><g transform="matrix(2.5028 0 0 2.5028 357.45 305.67)" fill="#15514d"><path d="m0 0c-0.067 0.111-0.961 1.014-1.396 1.372-4.348 3.592-25.556 19.894-52.234 19.894-6.805 0-13.484-1.087-19.854-3.233-1.729-0.581-5.44-1.835-10.102-3.41-0.059 0.026-0.112 0.041-0.154 0.027l6e-3 17.016c0 1.285-0.818 2.428-2.035 2.842l-34.027 11.566c-0.628 0.214-1.308 0.212-1.935-2e-3l-67.543-23.02c-1.31-0.446-2.191-1.677-2.191-3.06v-141.46c0-1.29 0.824-2.436 2.048-2.845l33.825-11.303c0.759-0.254 1.578-0.253 2.336 3e-3l27.345 9.218 0.013-17.006c1e-3 -1.318 0.845-2.489 2.096-2.906l34.039-11.355c0.599-0.199 1.245-0.2 1.844-3e-3l34.134 11.239c1.23 0.404 2.061 1.553 2.061 2.848v30.296l13.674 4.576c28.593 9.568 51.856 42.855 51.856 74.203 0 14.421-4.893 26.616-13.806 34.502" fill="#15514d"/></g><g transform="matrix(2.5028 0 0 2.5028 127.58 -71.354)" fill="#8dc3a7"><path d="m0 0-2.673 0.895-25.355 8.486v51.088c0 1.29-0.825 2.436-2.048 2.845l-31.559 10.562c-0.913 0.307-1.921 0.154-2.705-0.41-0.783-0.563-1.247-1.469-1.247-2.434v-49.079l-28.028 9.381v135.27l28.028-9.381v-46.464c0-1.29 0.824-2.435 2.048-2.844l31.559-10.564c0.912-0.306 1.92-0.153 2.705 0.41 0.783 0.564 1.247 1.47 1.247 2.435v44.455l28.028-9.381z" fill="#8dc3a7"/></g><g fill="#4e9c81"><g transform="matrix(2.5028 0 0 2.5028 42.411 189.83)"><path d="m0 0v12.984l-19.172-6.567z" fill="#4e9c81"/></g><g transform="matrix(2.5028 0 0 2.5028 55.221 405.94)"><path d="m0 0-58.315-19.918 24.628-8.243c1e-3 0.021 2e-3 0.047 2e-3 0.047l58.365 19.724z" fill="#4e9c81"/></g><g transform="matrix(2.5028 0 0 2.5028 293.71 328.02)"><path d="m0 0c-7.961 3.491-17.668 6.336-28.16 6.336-6.153 0-12.189-0.982-17.941-2.918-4.672-1.574-27.777-9.353-41.956-14.141l24.791-8.298 47.427 16c7.875 2.375 12.202 2.937 15.839 3.021" fill="#4e9c81"/></g><g transform="matrix(2.5028 0 0 2.5028 271.33 215.43)"><path d="m0 0c-1.159 0-2.384-0.213-3.64-0.633l-13.673-4.576v-28.325l11.769 3.938c7.443 2.492 13.732 11.541 13.732 19.762 0 5.974-3.214 9.834-8.188 9.834" fill="#4e9c81"/></g></g><g fill="#207567"><g transform="matrix(2.5028 0 0 2.5028 -21.557 216.33)"><path d="m0 0 25.559 8.687v25.125c0 1.296 0.816 2.465 2.042 2.885h2e-3c5e-3 3e-3 -4e-3 0.011 1e-3 0.013 0 0 19.165 6.484 34.091 11.53l6e-3 14.943-61.701-20.852z" fill="#207567"/></g><g transform="matrix(2.5028 0 0 2.5028 -21.557 -16.384)"><path d="M 0,0 25.559,8.629 V 36.347 L 0,44.9 Z" fill="#207567"/></g><g transform="matrix(2.5028 0 0 2.5028 262.22 127.12)"><path d="m0 0-15.722-5.262c-0.31-0.104-0.632-0.155-0.952-0.155-0.621 0-1.235 0.193-1.753 0.565-0.783 0.564-1.247 1.47-1.247 2.435v34.652c0 1.29 0.824 2.436 2.048 2.845l15.722 5.262c1.871 0.626 3.736 0.943 5.544 0.943 8.353 0 14.187-6.511 14.187-15.834 0-10.926-7.831-22.105-17.827-25.451m33.279 67.526-1e-3 2e-3c-0.024 1e-3 -0.055-4e-3 -0.069 7e-3 -5.378 4.414-12.169 6.747-19.64 6.747-3.583 0-8.953-0.657-11.814-1.692l-49.555-16.623v-135.29l28.126 9.26v30.283c0 1.29 0.824 2.436 2.048 2.845l15.722 5.262c26.335 8.812 47.759 39.547 47.759 68.513 0 13.102-4.466 24.001-12.576 30.687" fill="#207567"/></g></g></g></svg>
