<?xml version="1.0" encoding="UTF-8" standalone="no"?>
<!DOCTYPE svg PUBLIC "-//W3C//DTD SVG 1.1//EN" "http://www.w3.org/Graphics/SVG/1.1/DTD/svg11.dtd">
<svg width="100%" height="100%" viewBox="0 0 818 705" version="1.1" xmlns="http://www.w3.org/2000/svg" xmlns:xlink="http://www.w3.org/1999/xlink" xml:space="preserve" xmlns:serif="http://www.serif.com/" style="fill-rule:evenodd;clip-rule:evenodd;stroke-linejoin:round;stroke-miterlimit:2;">
    <g id="hp-loop" transform="matrix(0.229309,0,0,0.271097,0,0)">
        <rect x="0" y="0" width="3566.93" height="2598.43" style="fill:none;"/>
        <g transform="matrix(2.31132,0,0,2.45277,-2316.69,-1885.41)">
            <g transform="matrix(1.32603,0,0,1.05695,-5023.72,-3011.62)">
                <path d="M4743.39,4050.43L4743.57,4050.43C4743.57,4000.18 4784.31,3959.44 4834.57,3959.44C4884.82,3959.44 4925.56,4000.18 4925.56,4050.43L5108.09,4050.43C5108.09,3899.37 4985.63,3776.91 4834.57,3776.91C4802.6,3776.91 4771.92,3782.39 4743.39,3792.47L4743.39,3618.18C4743.39,3611.92 4740.9,3605.91 4736.47,3601.48C4732.04,3597.05 4726.03,3594.56 4719.77,3594.56L4584.66,3594.56C4578.4,3594.56 4572.39,3597.05 4567.96,3601.48C4563.53,3605.91 4561.04,3611.92 4561.04,3618.18L4561.04,4300.34C4561.04,4306.6 4563.53,4312.61 4567.96,4317.04C4572.39,4321.47 4578.4,4323.96 4584.66,4323.96L4719.77,4323.96C4726.03,4323.96 4732.04,4321.47 4736.47,4317.04C4740.9,4312.61 4743.39,4306.6 4743.39,4300.34L4743.39,4050.43ZM5108.09,4100.41L5108.09,4050.43L4925.74,4050.43C4925.74,4050.43 4925.74,4013.99 4925.74,4141.63C4925.74,4251.02 5010.47,4323.74 5098.03,4323.96C5185.6,4323.96 5118.83,4323.96 5108.09,4323.96L5108.09,4323.96L5420.09,4323.96L5420.09,4141.61L5149.39,4141.61C5121.55,4140.97 5108.77,4128.79 5108.09,4100.41Z" style="fill:url(#_Linear1);"/>
            </g>
            <g transform="matrix(1.32603,0,0,1.05695,-5023.72,-3011.62)">
                <path d="M5144.58,4047.43L5144.56,4047.43C5144.56,4047.43 5144.56,4436.57 5144.56,4537.39C5144.56,4543.65 5147.05,4549.66 5151.48,4554.09C5155.91,4558.52 5161.92,4561.01 5168.18,4561.01L5303.29,4561.01C5309.55,4561.01 5315.56,4558.52 5319.99,4554.09C5324.42,4549.66 5326.91,4543.65 5326.91,4537.39L5326.91,4050.43L5327.09,4050.43C5327.09,4000.18 5367.83,3959.44 5418.09,3959.44C5468.31,3959.44 5509.08,4000.21 5509.08,4050.43C5509.08,4100.69 5468.34,4141.43 5418.09,4141.43L5418.09,4323.96C5569.15,4323.96 5691.61,4201.5 5691.61,4050.43C5691.61,3899.47 5569.05,3776.91 5418.09,3776.91C5268.02,3776.91 5146.18,3897.76 5144.58,4047.43Z" style="fill:rgb(78,156,129);"/>
            </g>
            <g transform="matrix(1.32603,0,0,1.05695,-5023.72,-3011.62)">
                <path d="M5418.09,3776.91C5268.02,3776.91 5146.18,3897.76 5144.58,4047.43L5144.56,4047.43C5144.56,4047.43 5144.56,4436.57 5144.56,4537.39C5144.56,4543.65 5147.05,4549.66 5151.48,4554.09C5155.91,4558.52 5161.92,4561.01 5168.18,4561.01L5303.29,4561.01C5309.55,4561.01 5315.56,4558.52 5319.99,4554.09C5324.42,4549.66 5326.91,4543.65 5326.91,4537.39L5326.91,4050.43L5327.09,4050.43C5327.09,4000.18 5367.83,3959.44 5418.09,3959.44L5418.09,3776.91Z" style="fill:url(#_Linear2);"/>
            </g>
        </g>
    </g>
    <defs>
        <linearGradient id="_Linear1" x1="0" y1="0" x2="1" y2="0" gradientUnits="userSpaceOnUse" gradientTransform="matrix(685.039,-377.953,377.953,685.039,4568.07,4313.93)"><stop offset="0" style="stop-color:rgb(21,81,77);stop-opacity:1"/><stop offset="0.56" style="stop-color:rgb(61,134,114);stop-opacity:1"/><stop offset="1" style="stop-color:rgb(78,156,129);stop-opacity:1"/></linearGradient>
        <linearGradient id="_Linear2" x1="0" y1="0" x2="1" y2="0" gradientUnits="userSpaceOnUse" gradientTransform="matrix(141.732,-340.739,340.739,141.732,5229.48,4323.96)"><stop offset="0" style="stop-color:rgb(141,195,167);stop-opacity:1"/><stop offset="1" style="stop-color:rgb(78,156,129);stop-opacity:1"/></linearGradient>
    </defs>
</svg>
