<svg xmlns="http://www.w3.org/2000/svg" xmlns:xlink="http://www.w3.org/1999/xlink" viewBox="0 0 945 631.02">
  <defs>
    <style>
      .cls-1 {
        fill: url(#linear-gradient);
      }

      .cls-2, .cls-4 {
        fill: none;
        stroke-linecap: round;
        stroke-miterlimit: 10;
        stroke-width: 3px;
      }

      .cls-2 {
        stroke: #d4efd0;
      }

      .cls-3 {
        fill: url(#linear-gradient-2);
      }

      .cls-4 {
        stroke: #b4d8fc;
      }

      .cls-5, .cls-6 {
        fill: #fcffff;
      }

      .cls-6 {
        opacity: 0.28;
      }

      .cls-7 {
        fill: #d4efd0;
      }

      .cls-8 {
        fill: #e3f0ff;
      }
    </style>
    <linearGradient id="linear-gradient" x1="464.61" y1="223.82" x2="504.39" y2="707.21" gradientUnits="userSpaceOnUse">
      <stop offset="0" stop-color="#92c2ac" stop-opacity="0.9"/>
      <stop offset="0.09" stop-color="#8ebbb0" stop-opacity="0.78"/>
      <stop offset="0.32" stop-color="#84acb8" stop-opacity="0.5"/>
      <stop offset="0.53" stop-color="#7da0be" stop-opacity="0.28"/>
      <stop offset="0.72" stop-color="#7797c3" stop-opacity="0.13"/>
      <stop offset="0.88" stop-color="#7492c6" stop-opacity="0.03"/>
      <stop offset="1" stop-color="#7390c7" stop-opacity="0"/>
    </linearGradient>
    <linearGradient id="linear-gradient-2" x1="463.32" y1="204.23" x2="489.03" y2="804.07" gradientUnits="userSpaceOnUse">
      <stop offset="0" stop-color="#2553a5" stop-opacity="0.9"/>
      <stop offset="0.03" stop-color="#2855a7" stop-opacity="0.85"/>
      <stop offset="0.27" stop-color="#3d65b6" stop-opacity="0.55"/>
      <stop offset="0.49" stop-color="#4d72c2" stop-opacity="0.31"/>
      <stop offset="0.69" stop-color="#587bca" stop-opacity="0.14"/>
      <stop offset="0.87" stop-color="#6080cf" stop-opacity="0.04"/>
      <stop offset="1" stop-color="#6282d1" stop-opacity="0"/>
    </linearGradient>
  </defs>
  <g id="Layer_2" data-name="Layer 2">
    <g id="Layer_1-2" data-name="Layer 1">
      <g>
        <path class="cls-1" d="M742.72,279.62c-35.44-5.08-54.39-54.49-89.57-47.86-48.29,9.11-56.37,110.53-92.62,110.22-26.87-.24-40.37-54.67-70.32-53.08-16.76.89-19.61,21.28-35.16,21.75-26.56.81-38.35-58.11-73.51-60-32.12-1.76-49.45,46.13-83.11,45.83C247.18,296,227.61,192,191.35,192.31c-41,.41-55.13,174.9-117.73,177.22-10.71.4-17.68-4.41-30.9-2.32-27.31,4.32-37.54,31.18-41.62,56.3l-1,206.08L940.74,631,944.15.51C849.14,225.3,786,285.81,742.72,279.62Z"/>
        <path class="cls-2" d="M943.5,1.5C845.16,233.23,781.43,284.86,742.72,279.62c-36.31-4.92-55.33-55.68-90.6-48.89C604.15,240,596.6,342.12,560.53,342c-26.69-.11-40.34-54.67-70.32-53.08-16.76.89-19.61,21.28-35.16,21.75-26.56.81-38.35-58.11-73.51-60-32.12-1.76-49.45,46.13-83.11,45.83C247.18,296,227.61,192,191.35,192.31c-41,.41-55.13,174.9-117.73,177.22-10.47.39-22.64-4.91-36.12-1-22.95,6.6-29.43,28.11-36,50"/>
        <path class="cls-3" d="M943,206c-43.15,109.52-81.17,139.89-108.38,139.7-22.88-.16-34.15-21.32-69.73-22.11-43.43-.95-59.56,29.68-93.47,28.37-50.77-2-66.57-72.71-99.61-71.75-34.76,1-50,80.31-87.34,80.09-12.88-.07-18.08-9.54-29.12-8.34-26.11,2.83-21.22,58.38-36.77,59.24-13.73.75-24.95-42.11-49-42.55-21.12-.4-32.68,32.17-58.23,31.7C294.63,400,290,386,273,386.17c-17.67.18-20.8,15.37-44.44,22.52-25.38,7.68-53-.38-79.17-3.33C116.61,401.65,72.32,403.83,2,430.94V630.66l941-1.74Z"/>
        <path class="cls-4" d="M943,206c-43.15,109.52-81.17,139.89-108.38,139.7-22.88-.16-34.15-21.32-69.73-22.11-43.43-.95-59.56,29.68-93.47,28.37-50.77-2-66.57-72.71-99.61-71.75-34.76,1-50,80.31-87.34,80.09-12.88-.07-18.08-9.54-29.12-8.34-26.11,2.83-21.22,58.38-36.77,59.24-13.73.75-24.95-42.11-49-42.55-21.12-.4-32.68,32.17-58.23,31.7C294.63,400,290,386,273,386.17c-17.67.18-20.8,15.37-44.44,22.52-25.38,7.68-53-.38-79.17-3.33C116.61,401.65,72.32,403.83,2,430.94"/>
        <circle class="cls-5" cx="191.16" cy="193.14" r="6.49"/>
        <circle class="cls-6" cx="191.16" cy="193.14" r="12.98"/>
        <circle class="cls-7" cx="490.4" cy="289.96" r="6.49"/>
        <circle class="cls-5" cx="829.32" cy="219.77" r="7.21"/>
        <circle class="cls-6" cx="829.32" cy="219.77" r="16.22"/>
        <circle class="cls-7" cx="703.57" cy="258.47" r="6.49"/>
        <circle class="cls-8" cx="270.26" cy="386.85" r="7.21"/>
        <circle class="cls-5" cx="568.55" cy="282.1" r="7.21"/>
        <circle class="cls-6" cx="568.55" cy="282.1" r="14.42"/>
        <circle class="cls-8" cx="724.53" cy="334.52" r="6.49"/>
      </g>
    </g>
  </g>
</svg>
