<svg xmlns="http://www.w3.org/2000/svg" xmlns:xlink="http://www.w3.org/1999/xlink" viewBox="0 0 462.18 272.6">
  <defs>
    <style>
      .cls-1 {
        fill: #dfeae2;
      }

      .cls-2, .cls-7 {
        fill: #358873;
      }

      .cls-2 {
        opacity: 0.13;
      }

      .cls-3 {
        fill: #8dc3a7;
      }

      .cls-4 {
        fill: #207567;
      }

      .cls-5 {
        fill: #fdfefd;
      }

      .cls-6 {
        opacity: 0.39;
      }

      .cls-8 {
        fill: url(#linear-gradient);
      }
    </style>
    <linearGradient id="linear-gradient" x1="419.5" y1="87.39" x2="271.26" y2="193.98" gradientUnits="userSpaceOnUse">
      <stop offset="0" stop-color="#88b9e5"/>
      <stop offset="1" stop-color="#6282d1"/>
    </linearGradient>
  </defs>
  <g id="Layer_2" data-name="Layer 2">
    <g id="Layer_6" data-name="Layer 6">
      <g>
        <rect class="cls-1" width="391.11" height="272.6" rx="14.44"/>
        <path class="cls-2" d="M46.57,167.09c19.13-29.43,30.25-41,37.07-39.21,8.48,2.27,9,16.14,17.11,17.11,12.21,1.47,19.73-29.08,33.51-28.51,10.75.43,12.69,19.32,22.81,20,15,.93,19.24-39.78,43.48-45.63,14.54-3.5,19.66,9.51,35.65,8.56,31.92-1.92,41.26-55.61,61.3-57,14.7-1.05,35.08,26,63.45,124.75Z"/>
        <circle class="cls-3" cx="340.99" cy="27.38" r="6.18"/>
        <circle class="cls-4" cx="362.26" cy="27.38" r="6.18"/>
        <rect class="cls-5" x="35.17" y="187.76" width="321.86" height="45.98" rx="22.99"/>
        <g>
          <path class="cls-4" d="M324.76,199.76a7.72,7.72,0,1,1-7.72,7.72,7.71,7.71,0,0,1,7.72-7.72m0-3a10.72,10.72,0,1,0,10.72,10.72,10.73,10.73,0,0,0-10.72-10.72Z"/>
          <rect class="cls-4" x="331.73" y="211.56" width="3" height="9.32" transform="translate(-54.63 301.98) rotate(-45.45)"/>
        </g>
        <g class="cls-6">
          <path class="cls-7" d="M47.41,167.63l-1.67-1.09c19.59-30.15,30.65-41.64,38.16-39.62,4.6,1.23,7,5.37,9.24,9.37,2.13,3.74,4.14,7.28,7.73,7.71,5.41.64,10-6,15-13.12,5.37-7.72,10.93-15.73,18.47-15.4,6,.24,9.37,5.53,12.62,10.64,3,4.65,5.76,9,10.21,9.32,6.25.37,10.76-7.8,16-17.28,6.44-11.75,13.75-25.07,27.23-28.32,8-1.92,13.14.84,18.64,3.76,4.82,2.56,9.82,5.21,17.18,4.77,17.32-1,28-18.07,37.37-33.09,7.82-12.49,14.57-23.28,23.92-23.94,18.75-1.35,39.84,39.71,64.48,125.47l-1.92.56c-24-83.54-45-125.29-62.41-124-8.34.6-14.84,11-22.37,23-9.66,15.43-20.6,32.93-38.95,34-7.93.48-13.41-2.44-18.24-5-5.37-2.86-10-5.32-17.23-3.59-12.63,3-19.7,16-25.95,27.34-5.53,10.08-10.28,18.8-17.83,18.31-5.47-.34-8.68-5.37-11.77-10.23s-6.07-9.52-11-9.72c-6.48-.27-11.69,7.26-16.75,14.54-5.27,7.59-10.23,14.77-16.84,14-4.59-.55-6.95-4.69-9.23-8.7-2.08-3.65-4.23-7.42-8-8.43C77.13,127.18,65.7,139.5,47.41,167.63Z"/>
        </g>
        <g>
          <path class="cls-5" d="M382.34,115.17c-27.56,0-49.9,22.51-49.9,52h99.8C432.24,137.68,409.9,115.17,382.34,115.17Z"/>
          <g>
            <path class="cls-1" d="M381.86,86.89a80.32,80.32,0,0,0-80.32,80.32h32.13a48.19,48.19,0,0,1,96.38,0h32.13A80.32,80.32,0,0,0,381.86,86.89Z"/>
            <path class="cls-8" d="M381.86,86.89a80.32,80.32,0,0,0-80.32,80.32h32.13a48.19,48.19,0,0,1,84-32.3l22.72-22.72A80.11,80.11,0,0,0,381.86,86.89Z"/>
          </g>
          <path class="cls-4" d="M389.46,168.56A8.74,8.74,0,1,1,377.1,156.2c2.56-2.56,15.88-8.93,22.38-12a1.46,1.46,0,0,1,1.94,1.94C398.39,152.68,392,166,389.46,168.56Z"/>
        </g>
        <circle class="cls-3" cx="304.28" cy="43.76" r="4.28"/>
        <circle class="cls-3" cx="174.89" cy="115.76" r="4.28"/>
      </g>
    </g>
  </g>
</svg>
