<svg xmlns="http://www.w3.org/2000/svg" xmlns:xlink="http://www.w3.org/1999/xlink" viewBox="0 0 518.62 430.79">
  <defs>
    <style>
      .cls-1 {
        fill: #dfeae2;
      }

      .cls-2 {
        fill: #fff;
      }

      .cls-3 {
        fill: #d7e0d9;
      }

      .cls-4 {
        fill: #8dc3a7;
      }

      .cls-5 {
        fill: #207567;
      }

      .cls-6 {
        fill: #afbfb2;
      }

      .cls-7 {
        fill: url(#linear-gradient);
      }
    </style>
    <linearGradient id="linear-gradient" x1="446.07" y1="14.52" x2="502.56" y2="199.71" gradientUnits="userSpaceOnUse">
      <stop offset="0" stop-color="#88b9e5"/>
      <stop offset="1" stop-color="#6282d1"/>
    </linearGradient>
  </defs>
  <g id="Layer_2" data-name="Layer 2">
    <g id="Layer_10" data-name="Layer 10">
      <g>
        <rect class="cls-1" x="98.66" y="158.19" width="391.11" height="272.6" rx="14.44"/>
        <g>
          <rect class="cls-2" x="0.5" y="0.5" width="392.11" height="273.6" rx="14.94"/>
          <path class="cls-3" d="M377.68,1a14.43,14.43,0,0,1,14.43,14.44V259.16a14.43,14.43,0,0,1-14.43,14.44H15.44A14.43,14.43,0,0,1,1,259.16V15.44A14.43,14.43,0,0,1,15.44,1H377.68m0-1H15.44A15.45,15.45,0,0,0,0,15.44V259.16A15.46,15.46,0,0,0,15.44,274.6H377.68a15.45,15.45,0,0,0,15.43-15.44V15.44A15.45,15.45,0,0,0,377.68,0Z"/>
        </g>
        <rect class="cls-4" x="197.32" y="68.18" width="157.5" height="85.15" rx="8.77"/>
        <rect class="cls-1" x="20.13" y="20.54" width="298.46" height="15.68" rx="7.84"/>
        <circle class="cls-4" cx="341.99" cy="28.38" r="6.18"/>
        <circle class="cls-5" cx="363.26" cy="28.38" r="6.18"/>
        <path class="cls-2" d="M215.32,138.71H334.61a2.2,2.2,0,0,0,1.78-3.49L324.6,119.09a8.88,8.88,0,0,0-11.79-2.35l-9.61,5.86A10.19,10.19,0,0,1,291,121.34l-32-29.85a8.88,8.88,0,0,0-13.14,1.13l-32.22,42.57A2.19,2.19,0,0,0,215.32,138.71Z"/>
        <circle class="cls-2" cx="325.58" cy="92.59" r="7.31"/>
        <path class="cls-6" d="M469.5,229.51H418.65v-38.1a8,8,0,0,1,8-8H461.5a8,8,0,0,1,8,8Z"/>
        <path class="cls-6" d="M461.5,278.61H426.65a8,8,0,0,1-8-8v-38.1H469.5v38.1A8,8,0,0,1,461.5,278.61Z"/>
        <g>
          <rect class="cls-2" x="432.85" y="197.68" width="22.46" height="2.44" rx="0.75"/>
          <rect class="cls-2" x="432.85" y="205.23" width="22.46" height="2.44" rx="0.75"/>
          <rect class="cls-2" x="432.85" y="212.78" width="22.46" height="2.44" rx="0.75"/>
        </g>
        <circle class="cls-7" cx="466.04" cy="80" r="52.57"/>
        <rect class="cls-1" x="198.82" y="178.99" width="154.46" height="7" rx="3.5"/>
        <rect class="cls-1" x="198.82" y="197.05" width="117.86" height="7" rx="3.5"/>
        <rect class="cls-1" x="198.82" y="215.11" width="154.46" height="7" rx="3.5"/>
        <rect class="cls-1" x="198.82" y="233.17" width="118.81" height="7" rx="3.5"/>
        <rect class="cls-1" x="24.88" y="71.59" width="154.46" height="7" rx="3.5"/>
        <rect class="cls-1" x="24.88" y="89.65" width="154.46" height="7" rx="3.5"/>
        <rect class="cls-1" x="24.88" y="107.71" width="154.46" height="7" rx="3.5"/>
        <rect class="cls-1" x="24.88" y="125.77" width="154.46" height="7" rx="3.5"/>
        <rect class="cls-1" x="24.88" y="143.82" width="154.46" height="7" rx="3.5"/>
        <rect class="cls-1" x="24.88" y="161.88" width="120.24" height="7" rx="3.5"/>
        <rect class="cls-1" x="24.88" y="179.94" width="154.46" height="7" rx="3.5"/>
        <rect class="cls-1" x="24.88" y="198" width="112.63" height="7" rx="3.5"/>
        <rect class="cls-1" x="24.88" y="216.06" width="154.46" height="7" rx="3.5"/>
        <rect class="cls-1" x="24.88" y="234.12" width="110.73" height="7" rx="3.5"/>
        <path class="cls-2" d="M496.13,57.7c-.23-.35-.48-.69-.73-1a4.23,4.23,0,0,0-2.81-1.1,4.9,4.9,0,0,0-1.14.08,5.16,5.16,0,0,0-4.25,4.1c-.56,2.56.49,4.65,1.72,7,1.46,2.84,3.1,6,1.78,10.37L485,91.83s0,0,0,0a1.05,1.05,0,0,1-.15.24,1.53,1.53,0,0,1-.11.16,1.53,1.53,0,0,0-.16.11c-.09,0-.15.11-.23.15h0a1.89,1.89,0,0,1-.23,0l-.19,0a0,0,0,0,0,0,0,1.49,1.49,0,0,1-.42-.08h0s0,0-.07,0a2.09,2.09,0,0,1-.28-.17l-.1-.1a.85.85,0,0,1-.17-.25s0-.07-.06-.1a.06.06,0,0,1,0,0L471.68,63h-.16a2,2,0,0,0-1.94-1.75H459.06a.44.44,0,0,0-.44.44v1.09a.44.44,0,0,0,.44.43h5.12l4.16,10.69a.58.58,0,0,1,0,.19,2.24,2.24,0,0,1,0,.24,1.07,1.07,0,0,1-.06.35s0,.06,0,.1v0a.06.06,0,0,0,0,0l-1.59,4-5.05,13,0,0a.47.47,0,0,1,0,.1,1.24,1.24,0,0,1-.18.25.33.33,0,0,1-.11.1.69.69,0,0,1-.27.17.18.18,0,0,1-.07,0h0a1.29,1.29,0,0,1-.39.08,1.42,1.42,0,0,1-.42-.08h0l-.06,0a1.61,1.61,0,0,1-.28-.17l-.1-.1a1.14,1.14,0,0,1-.18-.25.93.93,0,0,0,0-.1s0,0,0,0L448.37,63h0a2,2,0,0,0-1.94-1.75H435.89a.44.44,0,0,0-.44.44v1.09a.44.44,0,0,0,.44.43h5l15.81,40.52a1.14,1.14,0,0,0,2.13,0l9.44-24.24,0,0a1.57,1.57,0,0,1,.14-.25,1.1,1.1,0,0,0,.11-.14,1.67,1.67,0,0,1,.16-.12.62.62,0,0,1,.25-.14,0,0,0,0,1,0,0,.58.58,0,0,1,.18,0,.75.75,0,0,1,.54,0,.74.74,0,0,1,.18,0h0a.65.65,0,0,1,.23.13c.05,0,.13.08.16.13a.38.38,0,0,1,.11.14,1.4,1.4,0,0,1,.16.26s0,0,0,0L480,103.69a1.14,1.14,0,0,0,2.13,0l4.39-11.27,5.05-13C494.37,73,498,61.62,496.13,57.7Z"/>
        <g>
          <polygon class="cls-2" points="440 265.96 432.63 266.88 433.44 259.39 448.29 244.54 454.86 251.1 440 265.96"/>
          <path class="cls-2" d="M456.7,249l-6.33-6.33.14-.15a3.06,3.06,0,0,1,4.32,0l2,2a3.07,3.07,0,0,1,0,4.33Z"/>
        </g>
        <rect class="cls-6" x="127.06" y="309.95" width="342.18" height="94.1" rx="11.41"/>
      </g>
    </g>
  </g>
</svg>
